<svg width="18" height="17" viewBox="0 0 18 17" fill="none" xmlns="http://www.w3.org/2000/svg">
<path fill-rule="evenodd" clip-rule="evenodd" d="M14 3C14 2.20435 13.6839 1.44129 13.1213 0.87868C12.5587 0.316071 11.7956 0 11 0H7C6.20435 0 5.44129 0.316071 4.87868 0.87868C4.31607 1.44129 4 2.20435 4 3H3C2.20435 3 1.44129 3.31607 0.87868 3.87868C0.316071 4.44129 0 5.20435 0 6V14C0 14.7956 0.316071 15.5587 0.87868 16.1213C1.44129 16.6839 2.20435 17 3 17H15C15.7956 17 16.5587 16.6839 17.1213 16.1213C17.6839 15.5587 18 14.7956 18 14V6C18 5.20435 17.6839 4.44129 17.1213 3.87868C16.5587 3.31607 15.7956 3 15 3H14ZM11 2H7C6.73478 2 6.48043 2.10536 6.29289 2.29289C6.10536 2.48043 6 2.73478 6 3H12C12 2.73478 11.8946 2.48043 11.7071 2.29289C11.5196 2.10536 11.2652 2 11 2ZM3 5H15C15.2652 5 15.5196 5.10536 15.7071 5.29289C15.8946 5.48043 16 5.73478 16 6V14C16 14.2652 15.8946 14.5196 15.7071 14.7071C15.5196 14.8946 15.2652 15 15 15H3C2.73478 15 2.48043 14.8946 2.29289 14.7071C2.10536 14.5196 2 14.2652 2 14V6C2 5.73478 2.10536 5.48043 2.29289 5.29289C2.48043 5.10536 2.73478 5 3 5Z" fill="#333333"/>
</svg>
