<svg width="37" height="37" viewBox="0 0 37 37" fill="none" xmlns="http://www.w3.org/2000/svg">
<path d="M18.0394 0C8.09325 0 0 8.091 0 18.0382C0 27.9855 8.09325 36.0765 18.0394 36.0765C27.9855 36.0765 36.0788 27.9855 36.0788 18.0382C36.0788 8.091 27.9855 0 18.0394 0ZM18.0394 34.875C8.75587 34.875 1.20375 27.3218 1.20375 18.0382C1.20375 8.75475 8.75587 1.2015 18.0394 1.2015C27.3229 1.2015 34.875 8.75475 34.875 18.0382C34.875 27.3218 27.3229 34.875 18.0394 34.875Z" fill="#006EFF"/>
<path d="M21.9768 7.91325H18.9753C15.1526 7.875 14.6643 10.2409 14.6643 12.8014V14.6633H12.9768C12.9005 14.6531 12.823 14.6606 12.7501 14.6853C12.6772 14.7099 12.611 14.7511 12.5565 14.8055C12.5021 14.8599 12.461 14.9261 12.4363 14.999C12.4117 15.0719 12.4041 15.1495 12.4143 15.2258V18.6008C12.4041 18.677 12.4117 18.7546 12.4363 18.8275C12.461 18.9004 12.5021 18.9666 12.5565 19.021C12.611 19.0754 12.6772 19.1166 12.7501 19.1412C12.823 19.1659 12.9005 19.1734 12.9768 19.1633H14.6643V27.6008C14.6549 27.6772 14.6632 27.7547 14.6883 27.8275C14.7135 27.9002 14.755 27.9662 14.8096 28.0205C14.8642 28.0748 14.9305 28.1159 15.0034 28.1406C15.0763 28.1653 15.1538 28.1731 15.2302 28.1632H18.6671C18.9989 28.2015 19.2678 27.9326 19.1621 27.6008L19.1643 19.1633H21.9768C22.0531 19.1734 22.1307 19.1659 22.2036 19.1412C22.2765 19.1166 22.3427 19.0754 22.3971 19.021C22.4515 18.9666 22.4926 18.9004 22.5173 18.8275C22.542 18.7546 22.5495 18.677 22.5393 18.6008V15.2258C22.5495 15.1495 22.542 15.0719 22.5173 14.999C22.4926 14.9261 22.4515 14.8599 22.3971 14.8055C22.3427 14.7511 22.2765 14.7099 22.2036 14.6853C22.1307 14.6606 22.0531 14.6531 21.9768 14.6633H19.1609L19.1643 12.9758C19.2734 12.2569 19.2734 12.3739 19.9406 12.4133H21.9532C22.1096 12.3784 22.2761 12.3975 22.3931 12.2839C22.5101 12.1703 22.5776 12.015 22.5382 11.8508V8.47575C22.5486 8.39954 22.5412 8.32196 22.5167 8.24906C22.4922 8.17616 22.4512 8.10991 22.3968 8.05547C22.3425 8.00103 22.2763 7.95987 22.2035 7.9352C22.1306 7.91053 22.0531 7.90302 21.9768 7.91325ZM21.3749 11.2253L19.9642 11.1713C18.2171 11.1713 18.0708 12.1196 18.0708 13.0905L18.0663 15.2235C18.0662 15.3025 18.0816 15.3807 18.1117 15.4537C18.1419 15.5268 18.1861 15.5931 18.2419 15.649C18.2977 15.7049 18.364 15.7493 18.4369 15.7795C18.5099 15.8098 18.5881 15.8254 18.6671 15.8254H21.4143V17.9989H18.6693C18.5099 17.9989 18.357 18.0621 18.2441 18.1748C18.1313 18.2874 18.0677 18.4402 18.0674 18.5996L18.0663 27.0383H15.7893V18.6008C15.7893 18.2689 15.5632 18 15.2302 18H13.5393V15.8265H15.2302C15.3091 15.8266 15.3873 15.8112 15.4603 15.7811C15.5333 15.751 15.5996 15.7068 15.6554 15.651C15.7679 15.5374 15.7882 15.3844 15.7882 15.2246V12.8003C15.7882 10.278 16.2978 9.0765 18.9742 9.0765H21.3738V11.2253H21.3749Z" fill="#006EFF"/>
</svg>
