<svg width="33" height="32" viewBox="0 0 33 32" fill="none" xmlns="http://www.w3.org/2000/svg">
<path d="M31.1553 16C31.1553 7.7155 24.4398 1 16.1553 1C7.87077 1 1.15527 7.7155 1.15527 16C1.15527 24.2845 7.87077 31 16.1553 31" stroke="#006EFF" stroke-width="1.5" stroke-linecap="round" stroke-linejoin="round"/>
<path d="M14.6553 30.925C14.6553 30.925 10.1553 25 10.1553 16C10.1553 6.99995 14.6553 1.07495 14.6553 1.07495M17.6553 1.07495C17.6553 1.07495 22.1553 6.99995 22.1553 16L17.6553 1.07495Z" stroke="#006EFF" stroke-width="1.5" stroke-linecap="round" stroke-linejoin="round"/>
<path d="M2.10022 10.75H30.2102M2.10022 21.25H16.1552H2.10022Z" stroke="#006EFF" stroke-width="1.5" stroke-linecap="round" stroke-linejoin="round"/>
<path d="M30.9738 24.8755C31.7148 25.3315 31.6683 26.44 30.9063 26.527L27.0558 26.9635L25.3293 30.4315C24.9873 31.12 23.9298 30.7825 23.7543 29.9305L21.8718 20.7565C21.7233 20.0365 22.3713 19.5835 22.9968 19.969L30.9738 24.8755V24.8755Z" stroke="#006EFF" stroke-width="1.5"/>
</svg>
