<svg width="37" height="36" viewBox="0 0 37 36" fill="none" xmlns="http://www.w3.org/2000/svg">
<path d="M18.116 13.8459C17.3019 13.8459 16.5061 14.0873 15.8293 14.5396C15.1524 14.9919 14.6248 15.6347 14.3133 16.3869C14.0018 17.139 13.9203 17.9667 14.0791 18.7652C14.2379 19.5636 14.6299 20.2971 15.2055 20.8727C15.7812 21.4484 16.5146 21.8405 17.313 21.9993C18.1114 22.1581 18.939 22.0766 19.6911 21.765C20.4432 21.4535 21.086 20.9259 21.5383 20.249C21.9906 19.5721 22.232 18.7762 22.232 17.9621C22.232 16.8704 21.7983 15.8234 21.0264 15.0515C20.2545 14.2795 19.2076 13.8459 18.116 13.8459ZM18.116 21.33C17.4499 21.33 16.7988 21.1324 16.245 20.7624C15.6912 20.3923 15.2596 19.8663 15.0047 19.2509C14.7498 18.6355 14.6831 17.9584 14.8131 17.3051C14.943 16.6518 15.2637 16.0517 15.7347 15.5807C16.2057 15.1097 16.8057 14.7889 17.459 14.659C18.1122 14.529 18.7894 14.5957 19.4047 14.8506C20.0201 15.1055 20.546 15.5372 20.9161 16.091C21.2861 16.6449 21.4836 17.296 21.4836 17.9621C21.4836 18.8553 21.1288 19.7119 20.4973 20.3435C19.8657 20.9751 19.0091 21.33 18.116 21.33ZM22.232 8.9812H14C12.7099 8.9812 11.4726 9.49373 10.5604 10.406C9.64811 11.3183 9.13562 12.5557 9.13562 13.8459V22.0784C9.13562 22.7172 9.26144 23.3498 9.5059 23.94C9.75035 24.5302 10.1087 25.0665 10.5604 25.5182C11.4726 26.4305 12.7099 26.943 14 26.943H22.232C22.8708 26.943 23.5033 26.8172 24.0935 26.5727C24.6837 26.3283 25.2199 25.9699 25.6716 25.5182C26.1233 25.0665 26.4816 24.5302 26.7261 23.94C26.9705 23.3498 27.0963 22.7172 27.0963 22.0784V13.8459C27.0963 13.207 26.9705 12.5744 26.7261 11.9842C26.4816 11.394 26.1233 10.8578 25.6716 10.406C25.2199 9.9543 24.6837 9.59597 24.0935 9.3515C23.5033 9.10703 22.8708 8.9812 22.232 8.9812ZM26.348 22.0784C26.348 23.1701 25.9143 24.2171 25.1424 24.989C24.3705 25.7609 23.3236 26.1946 22.232 26.1946H14C12.9083 26.1946 11.8614 25.7609 11.0895 24.989C10.3176 24.2171 9.88398 23.1701 9.88398 22.0784V13.8459C9.88398 12.7542 10.3176 11.7072 11.0895 10.9352C11.8614 10.1633 12.9083 9.72961 14 9.72961H22.232C23.3236 9.72961 24.3705 10.1633 25.1424 10.9352C25.9143 11.7072 26.348 12.7542 26.348 13.8459V22.0784ZM23.7287 13.0975C23.7287 13.2455 23.6848 13.3902 23.6026 13.5132C23.5203 13.6363 23.4035 13.7322 23.2667 13.7889C23.13 13.8455 22.9795 13.8604 22.8343 13.8315C22.6892 13.8026 22.5558 13.7313 22.4512 13.6267C22.3465 13.522 22.2752 13.3886 22.2464 13.2435C22.2175 13.0983 22.2323 12.9478 22.2889 12.8111C22.3456 12.6743 22.4415 12.5574 22.5646 12.4752C22.6876 12.3929 22.8323 12.349 22.9803 12.349C23.1788 12.349 23.3692 12.4279 23.5095 12.5682C23.6499 12.7086 23.7287 12.899 23.7287 13.0975Z" fill="#006EFF"/>
<path d="M18.1553 0C8.23086 0 0.155273 8.07384 0.155273 18C0.155273 27.9262 8.23086 36 18.1553 36C28.0797 36 36.1553 27.9262 36.1553 18C36.1553 8.07384 28.0797 0 18.1553 0ZM18.1553 34.801C8.89204 34.801 1.3564 27.2638 1.3564 18C1.3564 8.73619 8.89204 1.19895 18.1553 1.19895C27.4185 1.19895 34.9542 8.73619 34.9542 18C34.9542 27.2638 27.4185 34.801 18.1553 34.801Z" fill="#006EFF"/>
</svg>
