<svg width="37" height="37" viewBox="0 0 37 37" fill="none" xmlns="http://www.w3.org/2000/svg">
<path d="M22.0712 13.4842C21.3085 13.4842 20.7437 13.6766 20.3016 13.9196C20.2307 13.6676 19.9979 13.4831 19.7234 13.5382H16.3664C16.0345 13.4831 15.7656 13.752 15.868 14.1007V26.4757C15.7656 26.7907 16.0345 27.0607 16.3664 27.0382H19.7234C20.0552 27.0607 20.3241 26.7907 20.3241 26.4589L20.323 18.9799C20.3219 18.9765 20.3095 18.6188 20.5356 18.3724C20.7167 18.1766 21.0284 18.0765 21.4592 18.0765C22.177 18.0765 22.4965 18.3701 22.6157 19.0271V26.4589C22.4976 26.7907 22.7665 27.0607 23.0984 27.0382H26.6365C26.9684 27.0607 27.2372 26.7907 27.118 26.4589V18.7774C27.2361 14.8714 24.454 13.4842 22.0712 13.4842ZM26.0346 25.9132H23.6991V19.0271C23.6991 17.6985 22.8407 16.875 21.4604 16.875C20.6796 16.875 20.0721 17.1045 19.6536 17.5567C19.072 18.1867 19.117 18.9855 19.2419 19.1632V25.9132H16.9671V14.6857H19.1226V15.0637C19.1217 15.1764 19.1526 15.2869 19.2118 15.3827C19.2709 15.4786 19.3559 15.5558 19.4569 15.6055C19.558 15.6552 19.671 15.6754 19.783 15.6637C19.895 15.6521 20.0015 15.6091 20.0901 15.5396L20.2476 15.4181C20.7032 15.0592 21.1746 14.6869 22.0724 14.6869C23.0016 14.6869 26.0357 14.9828 26.0357 18.7785V25.9132H26.0346ZM12.4919 7.875C11.2296 7.875 10.2036 8.901 10.2036 10.1632C10.2036 11.4255 11.2296 12.4515 12.4919 12.4515C13.7541 12.4515 14.7801 11.4255 14.7801 10.1632C14.7801 8.901 13.7541 7.875 12.4919 7.875ZM12.4919 11.25C11.8934 11.25 11.4051 10.7617 11.4051 10.1632C11.4051 9.56475 11.8934 9.0765 12.4919 9.0765C13.0904 9.0765 13.5786 9.56475 13.5786 10.1632C13.5786 10.7617 13.0904 11.25 12.4919 11.25ZM14.0984 13.4831H10.7594C10.4275 13.4831 10.1586 13.752 10.2419 14.1007V26.4757C10.1586 26.7907 10.4275 27.0607 10.7594 27.0382H14.0984C14.4302 27.0607 14.6991 26.7907 14.6991 26.4589V14.0839C14.6991 13.9245 14.6358 13.7717 14.5232 13.6591C14.4105 13.5464 14.2577 13.4831 14.0984 13.4831ZM13.6169 25.9132H11.3601V14.6857H13.6169V25.9132Z" fill="#006EFF"/>
<path d="M18.1169 0C8.16961 0 0.0786133 8.091 0.0786133 18.0382C0.0786133 27.9855 8.16961 36.0765 18.1169 36.0765C28.0641 36.0765 36.1551 27.9855 36.1551 18.0382C36.1551 8.091 28.0641 0 18.1169 0ZM18.1169 34.875C8.83336 34.875 1.28011 27.3218 1.28011 18.0382C1.28011 8.75475 8.83336 1.2015 18.1169 1.2015C27.4004 1.2015 34.9536 8.75475 34.9536 18.0382C34.9536 27.3218 27.4004 34.875 18.1169 34.875Z" fill="#006EFF"/>
</svg>
