<svg width="21" height="20" viewBox="0 0 21 20" fill="none" xmlns="http://www.w3.org/2000/svg">
<path d="M10.0576 14.167C10.2937 14.167 10.4917 14.087 10.6517 13.927C10.8112 13.7675 10.8909 13.5698 10.8909 13.3337V10.8337H13.4117C13.6479 10.8337 13.8423 10.7537 13.9951 10.5937C14.1479 10.4342 14.2242 10.2364 14.2242 10.0003C14.2242 9.76421 14.1442 9.56616 13.9842 9.40616C13.8248 9.24671 13.627 9.16699 13.3909 9.16699H10.8909V6.64616C10.8909 6.41005 10.8112 6.2156 10.6517 6.06283C10.4917 5.91005 10.2937 5.83366 10.0576 5.83366C9.82147 5.83366 9.62369 5.91338 9.46424 6.07283C9.30424 6.23283 9.22424 6.43088 9.22424 6.66699V9.16699H6.70341C6.4673 9.16699 6.27285 9.24671 6.12008 9.40616C5.9673 9.56616 5.89091 9.76421 5.89091 10.0003C5.89091 10.2364 5.97063 10.4342 6.13008 10.5937C6.29008 10.7537 6.48813 10.8337 6.72424 10.8337H9.22424V13.3545C9.22424 13.5906 9.30424 13.785 9.46424 13.9378C9.62369 14.0906 9.82147 14.167 10.0576 14.167ZM10.0576 18.3337C8.9048 18.3337 7.82147 18.1148 6.80758 17.677C5.79369 17.2398 4.91174 16.6462 4.16174 15.8962C3.41174 15.1462 2.81813 14.2642 2.38091 13.2503C1.94313 12.2364 1.72424 11.1531 1.72424 10.0003C1.72424 8.84755 1.94313 7.76421 2.38091 6.75033C2.81813 5.73644 3.41174 4.85449 4.16174 4.10449C4.91174 3.35449 5.79369 2.7606 6.80758 2.32283C7.82147 1.8856 8.9048 1.66699 10.0576 1.66699C11.2104 1.66699 12.2937 1.8856 13.3076 2.32283C14.3215 2.7606 15.2034 3.35449 15.9534 4.10449C16.7034 4.85449 17.297 5.73644 17.7342 6.75033C18.172 7.76421 18.3909 8.84755 18.3909 10.0003C18.3909 11.1531 18.172 12.2364 17.7342 13.2503C17.297 14.2642 16.7034 15.1462 15.9534 15.8962C15.2034 16.6462 14.3215 17.2398 13.3076 17.677C12.2937 18.1148 11.2104 18.3337 10.0576 18.3337ZM10.0576 16.667C11.9048 16.667 13.4779 16.0178 14.7767 14.7195C16.0751 13.4206 16.7242 11.8475 16.7242 10.0003C16.7242 8.1531 16.0751 6.58005 14.7767 5.28116C13.4779 3.98283 11.9048 3.33366 10.0576 3.33366C8.21035 3.33366 6.63758 3.98283 5.33924 5.28116C4.04035 6.58005 3.39091 8.1531 3.39091 10.0003C3.39091 11.8475 4.04035 13.4206 5.33924 14.7195C6.63758 16.0178 8.21035 16.667 10.0576 16.667Z" fill="white"/>
</svg>
