<svg width="52" height="52" viewBox="0 0 52 52" fill="none" xmlns="http://www.w3.org/2000/svg">
<path d="M50.375 13V14.625C50.375 14.8405 50.2894 15.0472 50.137 15.1996C49.9847 15.3519 49.778 15.4375 49.5625 15.4375H47.125V16.6563C47.125 17.3293 46.5793 17.875 45.9062 17.875H6.09375C5.4207 17.875 4.875 17.3293 4.875 16.6563V15.4375H2.4375C2.22201 15.4375 2.01535 15.3519 1.86298 15.1996C1.7106 15.0472 1.625 14.8405 1.625 14.625V13C1.625 12.8393 1.67268 12.6822 1.76201 12.5485C1.85133 12.4149 1.97829 12.3107 2.12682 12.2493L25.6893 3.31178C25.8883 3.22941 26.1117 3.22941 26.3107 3.31178L49.8732 12.2493C50.0217 12.3107 50.1487 12.4149 50.238 12.5485C50.3273 12.6822 50.375 12.8393 50.375 13ZM47.9375 43.875H4.0625C2.71629 43.875 1.625 44.9663 1.625 46.3125V47.9375C1.625 48.153 1.7106 48.3597 1.86298 48.5121C2.01535 48.6644 2.22201 48.75 2.4375 48.75H49.5625C49.778 48.75 49.9847 48.6644 50.137 48.5121C50.2894 48.3597 50.375 48.153 50.375 47.9375V46.3125C50.375 44.9663 49.2837 43.875 47.9375 43.875ZM9.75 19.5V39H6.09375C5.4207 39 4.875 39.5457 4.875 40.2188V42.25H47.125V40.2188C47.125 39.5457 46.5793 39 45.9062 39H42.25V19.5H35.75V39H29.25V19.5H22.75V39H16.25V19.5H9.75Z" fill="#006EFF"/>
</svg>
