<svg width="37" height="36" viewBox="0 0 37 36" fill="none" xmlns="http://www.w3.org/2000/svg">
<path d="M33.1553 18C33.1553 9.7155 26.4398 3 18.1553 3C9.87077 3 3.15527 9.7155 3.15527 18C3.15527 26.2845 9.87077 33 18.1553 33" stroke="#006EFF" stroke-width="1.5" stroke-linecap="round" stroke-linejoin="round"/>
<path d="M16.6553 32.925C16.6553 32.925 12.1553 27 12.1553 18C12.1553 8.99995 16.6553 3.07495 16.6553 3.07495M19.6553 3.07495C19.6553 3.07495 24.1553 8.99995 24.1553 18L19.6553 3.07495Z" stroke="#006EFF" stroke-width="1.5" stroke-linecap="round" stroke-linejoin="round"/>
<path d="M4.10022 12.75H32.2102M4.10022 23.25H18.1552H4.10022Z" stroke="#006EFF" stroke-width="1.5" stroke-linecap="round" stroke-linejoin="round"/>
<path d="M32.9738 26.8755C33.7148 27.3315 33.6683 28.44 32.9063 28.527L29.0558 28.9635L27.3293 32.4315C26.9873 33.12 25.9298 32.7825 25.7543 31.9305L23.8718 22.7565C23.7233 22.0365 24.3713 21.5835 24.9968 21.969L32.9738 26.8755V26.8755Z" stroke="#006EFF" stroke-width="1.5"/>
</svg>
